<?xml version="1.0" standalone="no"?>
<!DOCTYPE svg PUBLIC "-//W3C//DTD SVG 20010904//EN"
 "http://www.w3.org/TR/2001/REC-SVG-20010904/DTD/svg10.dtd">
<svg version="1.0" xmlns="http://www.w3.org/2000/svg"
 width="700.000000pt" height="700.000000pt" viewBox="0 0 700.000000 700.000000"
 preserveAspectRatio="xMidYMid meet">
<metadata>
Created by potrace 1.11, written by Peter Selinger 2001-2013
</metadata>
<g transform="translate(0.000000,700.000000) scale(0.100000,-0.100000)"
fill="#000000" stroke="none">
<path d="M3269 6406 c-2 -2 -42 -7 -89 -10 -362 -27 -776 -175 -1120 -400
-111 -73 -156 -115 -181 -171 -48 -105 -1 -243 103 -300 91 -50 190 -37 303
40 171 117 332 205 484 262 91 34 237 79 291 89 25 4 47 8 50 9 3 1 32 5 65 9
33 5 69 10 80 13 29 6 301 4 354 -3 295 -37 576 -156 796 -338 134 -111 287
-286 368 -422 79 -131 186 -400 213 -531 14 -71 79 -277 104 -331 28 -61 193
-311 276 -418 38 -50 117 -144 162 -194 12 -14 32 -44 43 -67 38 -78 15 -134
-111 -273 -36 -39 -72 -88 -81 -107 -25 -53 -16 -114 28 -192 83 -148 85 -153
79 -201 -7 -52 -37 -87 -102 -119 l-45 -23 58 -45 c64 -49 83 -70 83 -91 0 -8
-25 -39 -55 -69 -95 -91 -96 -118 -14 -286 81 -165 83 -234 8 -273 -38 -19
-65 -22 -304 -29 -104 -3 -208 -8 -230 -10 -229 -30 -344 -99 -487 -291 -84
-113 -238 -388 -308 -549 -11 -27 -25 -59 -30 -70 -67 -145 -157 -440 -137
-448 7 -2 123 -5 258 -6 187 -1 249 2 256 11 6 7 18 45 28 83 54 223 105 368
183 520 49 96 164 272 206 317 66 69 176 105 331 108 392 7 408 8 490 33 117
36 180 81 210 154 35 83 14 190 -80 411 l-26 63 20 33 c12 18 38 45 59 60 66
45 105 93 107 128 3 47 -16 78 -86 140 l-62 54 52 38 c62 46 101 100 101 139
0 33 -22 84 -60 142 -46 69 -65 137 -55 202 7 47 43 86 156 171 140 104 185
162 176 228 -7 53 -19 67 -225 283 -35 36 -92 95 -126 131 -52 55 -125 139
-193 224 -8 10 -34 49 -58 85 -36 57 -56 98 -106 216 -4 11 -55 162 -113 335
-111 333 -156 448 -231 586 -96 175 -266 366 -465 521 -279 218 -648 374 -965
409 -27 3 -61 8 -75 10 -30 6 -356 14 -361 10z"/>
<path d="M1652 5534 c-67 -17 -145 -68 -200 -127 -166 -182 -386 -688 -436
-1007 -3 -19 -8 -46 -10 -60 -16 -93 -19 -146 -21 -310 -2 -190 4 -277 32
-450 9 -57 7 -46 22 -110 77 -327 217 -644 416 -945 119 -181 252 -342 460
-560 164 -171 217 -297 210 -495 -8 -207 -47 -341 -216 -737 -38 -89 -69 -165
-69 -168 0 -4 401 -5 891 -2 970 4 909 0 909 60 0 47 30 177 65 282 31 95 40
119 71 192 8 17 14 33 14 36 0 2 12 31 27 63 15 33 28 61 28 64 1 3 14 32 29
65 71 152 87 189 130 299 81 205 100 290 100 451 0 125 -3 148 -27 220 -42
127 -109 218 -320 431 -179 182 -346 375 -347 401 0 6 -4 13 -9 15 -16 6 -108
164 -174 300 -66 136 -133 295 -218 521 -27 71 -55 143 -62 160 -113 262 -132
295 -228 400 -101 111 -268 204 -401 225 -109 16 -338 -3 -338 -29 0 -6 27
-51 59 -102 101 -159 235 -436 300 -622 29 -81 94 -301 120 -405 52 -209 65
-509 26 -615 -38 -105 -100 -159 -175 -150 -74 9 -204 77 -295 155 -229 195
-388 471 -451 780 -19 92 -25 358 -11 483 28 255 124 525 309 868 97 179 108
293 37 373 -53 60 -142 79 -247 50z"/>
</g>
</svg>
